<svg width="40" height="40" viewBox="0 0 40 40" fill="none" xmlns="http://www.w3.org/2000/svg">
<path d="M26.9767 18.5883V23.255C26.9767 23.5583 26.965 23.85 26.93 24.13C26.6617 27.28 24.8067 28.8433 21.3884 28.8433H20.9217C20.6301 28.8433 20.35 28.9833 20.175 29.2167L18.7751 31.0833C18.1567 31.9117 17.1534 31.9117 16.535 31.0833L15.135 29.2167C14.9834 29.0183 14.645 28.8433 14.3884 28.8433H13.9217C10.2001 28.8433 8.33337 27.9217 8.33337 23.255V18.5883C8.33337 15.17 9.90838 13.315 13.0467 13.0467C13.3267 13.0117 13.6184 13 13.9217 13H21.3884C25.11 13 26.9767 14.8667 26.9767 18.5883Z" stroke="#7C7C7C" stroke-width="1.5" stroke-miterlimit="10" stroke-linecap="round" stroke-linejoin="round"/>
<path d="M31.6433 13.9217V18.5884C31.6433 22.0184 30.0683 23.8617 26.93 24.13C26.965 23.85 26.9766 23.5584 26.9766 23.255V18.5884C26.9766 14.8667 25.11 13 21.3883 13H13.9216C13.6183 13 13.3266 13.0117 13.0466 13.0467C13.315 9.90835 15.17 8.33334 18.5883 8.33334H26.055C29.7766 8.33334 31.6433 10.2 31.6433 13.9217Z" stroke="#7C7C7C" stroke-width="1.5" stroke-miterlimit="10" stroke-linecap="round" stroke-linejoin="round"/>
<path d="M21.7447 21.4583H21.7552" stroke="#7C7C7C" stroke-width="2" stroke-linecap="round" stroke-linejoin="round"/>
<path d="M17.6615 21.4583H17.672" stroke="#7C7C7C" stroke-width="2" stroke-linecap="round" stroke-linejoin="round"/>
<path d="M13.5781 21.4583H13.5886" stroke="#7C7C7C" stroke-width="2" stroke-linecap="round" stroke-linejoin="round"/>
</svg>
