<svg width="40" height="40" viewBox="0 0 40 40" fill="none" xmlns="http://www.w3.org/2000/svg">
<path d="M20 13.5133V17.3983" stroke="black" stroke-width="1.5" stroke-miterlimit="10" stroke-linecap="round"/>
<path d="M20.0233 8.33334C15.73 8.33334 12.2533 11.81 12.2533 16.1033V18.5533C12.2533 19.3467 11.9267 20.5367 11.5183 21.2133L10.0367 23.6867C9.12667 25.215 9.75667 26.9183 11.4367 27.4783C17.0133 29.3333 23.045 29.3333 28.6217 27.4783C30.1967 26.9533 30.8733 25.11 30.0217 23.6867L28.54 21.2133C28.1317 20.5367 27.805 19.335 27.805 18.5533V16.1033C27.7933 11.8333 24.2933 8.33334 20.0233 8.33334Z" stroke="black" stroke-width="1.5" stroke-miterlimit="10" stroke-linecap="round"/>
<path d="M23.885 27.9567C23.885 30.0917 22.135 31.8417 20 31.8417C18.9383 31.8417 17.9583 31.3983 17.2583 30.6983C16.5583 29.9983 16.115 29.0183 16.115 27.9567" stroke="black" stroke-width="1.5" stroke-miterlimit="10"/>
<circle cx="26" cy="10" r="4" fill="#FF0000"/>
</svg>
